<svg width="64" height="64" viewBox="0 0 64 64" fill="none" xmlns="http://www.w3.org/2000/svg">
  <!-- خلفية دائرية بيضاء شفافة -->
  <circle cx="32" cy="32" r="30" fill="white" fill-opacity="0.2"/>
  
  <!-- أيقونة مسجد بسيطة - باللون الأبيض -->
  <g transform="translate(16, 20)">
    <!-- القبة -->
    <path d="M16 8 C16 4, 12 2, 8 2 C4 2, 0 4, 0 8 L0 12 L16 12 Z" fill="white"/>
    
    <!-- المئذنة اليمنى -->
    <rect x="2" y="12" width="3" height="16" fill="white"/>
    <rect x="1.5" y="10" width="4" height="2" fill="white"/>
    
    <!-- المئذنة اليسرى -->
    <rect x="27" y="12" width="3" height="16" fill="white"/>
    <rect x="26.5" y="10" width="4" height="2" fill="white"/>
    
    <!-- المبنى الرئيسي -->
    <rect x="6" y="12" width="20" height="18" fill="white"/>
    
    <!-- الباب -->
    <path d="M13 22 L13 30 L19 30 L19 22 C19 20, 17 18, 16 18 C15 18, 13 20, 13 22 Z" fill="white" fill-opacity="0.3"/>
  </g>
  
  <!-- نص "تمام" -->
  <text x="32" y="56" font-family="Arial, sans-serif" font-size="10" font-weight="bold" fill="white" text-anchor="middle">TAMAM</text>
</svg>
